<svg version="1.1" xmlns="http://www.w3.org/2000/svg" xmlns:xlink="http://www.w3.org/1999/xlink" width="661" height="376" viewBox="0,0,661,376"><g transform="translate(10.5,8)"><g data-paper-data="{&quot;isPaintingLayer&quot;:true}" fill-rule="nonzero" stroke="#000000" stroke-width="0" stroke-linecap="butt" stroke-linejoin="miter" stroke-miterlimit="10" stroke-dasharray="" stroke-dashoffset="0" style="mix-blend-mode: normal"><path d="M-10.5,368c0,0 0,-41.53045 0,-88.63333c0,-34.35219 122.79075,5.30398 123,-101c0.21431,-108.87653 -123,-67.82095 -123,-105c0,-44.11935 0,-81.36667 0,-81.36667l339,0v376z" fill="#262626"/><path d="M311.5,368v-376h339c0,0 0,37.24732 0,81.36667c0,37.17905 -123.21431,-3.87653 -123,105c0.20925,106.30398 123,66.64782 123,101c0,47.10288 0,88.63333 0,88.63333z" data-paper-data="{&quot;index&quot;:null}" fill="#262626"/></g></g></svg>